<svg viewBox="0 0 800 450" xmlns="http://www.w3.org/2000/svg"><defs><linearGradient id="a" x1="0" y1="0" x2="0" y2="1"><stop offset="0%" stop-color="#e2e7de"/><stop offset="100%" stop-color="#ccd4c7"/></linearGradient></defs><rect width="100%" height="100%" fill="#f8f9f5"/><path d="M-50 380q250-130 500-230T850 30" fill="none" stroke="#e2e7de" stroke-width="2"/><path d="M-50 350q300-50 600-230T850-20" fill="none" stroke="#e2e7de" stroke-width="1.5" opacity=".6"/><path d="M0 420q300-50 700-170" fill="none" stroke="#e2e7de" opacity=".4"/><path stroke="#e2e7de" stroke-width="3" stroke-linecap="round" d="M40 390h720"/><g fill="url(#a)"><rect x="60" y="310" width="35" height="78" rx="3"/><rect x="120" y="240" width="35" height="148" rx="3"/><rect x="180" y="180" width="35" height="208" rx="3"/><rect x="240" y="130" width="35" height="258" rx="3"/></g><g fill="#e2e7de" transform="translate(680 190)"><circle r="75"/><path d="M-14-92h28V92h-28z"/><path d="m55.154-74.953 19.8 19.799L-55.155 74.953l-19.8-19.799z"/><path d="M92-14v28H-92v-28z"/><path d="m74.953 55.154-19.799 19.8L-74.953-55.155l19.799-19.8z"/><circle r="42" fill="#f8f9f5"/></g></svg>